<?xml version="1.0" encoding="UTF-8" standalone="no"?>
<svg width="226px" height="51px" viewBox="0 0 226 51" version="1.1" xmlns="http://www.w3.org/2000/svg" xmlns:xlink="http://www.w3.org/1999/xlink">
    <!-- Generator: sketchtool 50.2 (55047) - http://www.bohemiancoding.com/sketch -->
    <title>2DEEA60D-526C-4632-BCDD-63F649EC83B7</title>
    <desc>Created with sketchtool.</desc>
    <defs></defs>
    <g id="Page-1" stroke="none" stroke-width="1" fill="none" fill-rule="evenodd">
        <g id="home-copy-4" transform="translate(-382.000000, -27.000000)">
            <g id="Group-4" transform="translate(382.000000, 27.000000)">
                <g id="Group-3" transform="translate(0.000000, 1.000000)">
                    <path d="M63.0959917,45.9911141 L61.6177267,45.9911141 L61.1539572,48.2803365 L60.2785924,48.2803365 L60.7423619,45.9911141 L59.3742421,45.9911141 L59.3742421,45.2094284 L60.9046812,45.2094284 L61.2988852,43.2663811 L59.814823,43.2663811 L59.814823,42.4735285 L61.4612045,42.4735285 L61.9365681,40.1508053 L62.8119329,40.1508053 L62.3365693,42.4735285 L63.8148343,42.4735285 L64.290198,40.1508053 L65.1655628,40.1508053 L64.6901991,42.4735285 L65.8438256,42.4735285 L65.8438256,43.2663811 L64.5336769,43.2663811 L64.1394729,45.2094284 L65.4090417,45.2094284 L65.4090417,45.9911141 L63.9771536,45.9911141 L63.5133842,48.2803365 L62.6322223,48.2803365 L63.0959917,45.9911141 Z M61.780046,45.2094284 L63.258311,45.2094284 L63.652515,43.2663811 L62.17425,43.2663811 L61.780046,45.2094284 Z M68.6148479,48.2803365 L67.4670186,48.2803365 L67.4670186,40.1508053 L68.6148479,40.1508053 L68.6148479,48.2803365 Z M71.571378,42.2390228 L71.6525377,43.1379613 C71.861235,42.8178408 72.1230688,42.5693789 72.4380471,42.3925682 C72.7530254,42.2157575 73.111477,42.1273534 73.5134125,42.1273534 C74.1897463,42.1273534 74.713414,42.31812 75.0844314,42.699659 C75.4554488,43.081198 75.6409547,43.6702481 75.6409547,44.466827 L75.6409547,48.2803365 L74.4989225,48.2803365 L74.4989225,44.4891609 C74.4989225,43.9568675 74.3897446,43.5790565 74.1713854,43.3557166 C73.9530262,43.1323768 73.6196952,43.0207085 73.1713825,43.0207085 C72.8428776,43.0207085 72.5520584,43.0970151 72.2989163,43.2496307 C72.0457742,43.4022463 71.8438433,43.6106937 71.6931175,43.8749793 L71.6931175,48.2803365 L70.5510853,48.2803365 L70.5510853,42.2390228 L71.571378,42.2390228 Z M77.0380601,45.371349 C77.0380601,44.3998205 77.2535175,43.6162815 77.6844388,43.0207085 C78.11536,42.4251355 78.7192204,42.1273534 79.4960381,42.1273534 C79.8631907,42.1273534 80.1887923,42.1924932 80.4728525,42.3227748 C80.7569127,42.4530564 80.999423,42.6428925 81.2003908,42.8922887 L81.2003908,39.5701245 L82.342423,39.5701245 L82.342423,48.2803365 L81.409087,48.2803365 L81.2757533,47.5377351 C81.0709208,47.8206322 80.8197148,48.0346631 80.522128,48.179834 C80.2245411,48.3250049 79.8786499,48.3975893 79.4844439,48.3975893 C78.7192205,48.3975893 78.120191,48.130516 77.6873373,47.5963615 C77.2544837,47.0622069 77.0380601,46.3596274 77.0380601,45.4886019 L77.0380601,45.371349 Z M78.1800924,45.4886019 C78.1800924,46.0990642 78.30956,46.5876129 78.5684993,46.9542625 C78.8274385,47.3209122 79.229368,47.5042342 79.7742998,47.5042342 C80.1143991,47.5042342 80.4003873,47.4297887 80.6322732,47.2808955 C80.8641591,47.1320022 81.0535297,46.9235548 81.2003908,46.6555469 L81.2003908,43.835895 C81.0535297,43.5864988 80.8631929,43.3882876 80.6293747,43.2412555 C80.3955564,43.0942234 80.114399,43.0207085 79.785894,43.0207085 C79.2370974,43.0207085 78.8322694,43.2384616 78.5713978,43.6739744 C78.3105262,44.1094872 78.1800924,44.675273 78.1800924,45.371349 L78.1800924,45.4886019 Z M85.2815617,48.2803365 L84.1395295,48.2803365 L84.1395295,42.2390228 L85.2815617,42.2390228 L85.2815617,48.2803365 Z M85.2815617,40.6924018 L84.1395295,40.6924018 L84.1395295,39.5701245 L85.2815617,39.5701245 L85.2815617,40.6924018 Z M90.8931718,48.2803365 C90.8545242,48.0979422 90.8245727,47.9369538 90.8033165,47.7973664 C90.7820603,47.657779 90.7695,47.517263 90.7656352,47.3758145 C90.5530732,47.6661563 90.2757805,47.9090348 89.9337488,48.1044572 C89.5917171,48.2998796 89.2236038,48.3975893 88.8293979,48.3975893 C88.1762526,48.3975893 87.6786717,48.2366009 87.33664,47.9146192 C86.9946083,47.5926376 86.8235951,47.1487562 86.8235951,46.5829618 C86.8235951,46.0060005 87.0661054,45.5546746 87.5511334,45.2289706 C88.0361613,44.9032666 88.6941276,44.740417 89.525052,44.740417 L90.7656352,44.740417 L90.7656352,44.1429858 C90.7656352,43.7893643 90.6535587,43.5092631 90.4294024,43.3026737 C90.205246,43.0960843 89.8883401,42.9927911 89.4786751,42.9927911 C89.1115224,42.9927911 88.8129738,43.0830563 88.5830203,43.2635894 C88.3530669,43.4441225 88.2380918,43.660945 88.2380918,43.9140636 L87.1482337,43.9140636 L87.1366394,43.8805627 C87.1134509,43.4413276 87.3289082,43.0393219 87.7830181,42.6745334 C88.2371279,42.3097449 88.8235971,42.1273534 89.5424434,42.1273534 C90.25356,42.1273534 90.8255366,42.3013698 91.2583902,42.6494078 C91.6912439,42.9974458 91.9076674,43.4990224 91.9076674,44.1541527 L91.9076674,47.0631402 C91.9076674,47.2790354 91.9192616,47.4874828 91.9424501,47.6884887 C91.9656387,47.8894946 92.0081505,48.0867752 92.0699867,48.2803365 L90.8931718,48.2803365 Z M88.9975143,47.4763169 C89.4110441,47.4763169 89.7839883,47.3739543 90.116358,47.1692261 C90.4487278,46.9644979 90.6651513,46.7299945 90.7656352,46.465709 L90.7656352,45.4830184 L89.4844722,45.4830184 C89.0245652,45.4830184 88.6564519,45.5946867 88.3801212,45.8180266 C88.1037906,46.0413664 87.9656273,46.3037869 87.9656273,46.6052957 C87.9656273,46.8733036 88.0525832,47.0854733 88.2264976,47.2418112 C88.400412,47.3981491 88.657415,47.4763169 88.9975143,47.4763169 Z M94.9221687,44.7571674 L94.9221687,48.2803365 L93.7801365,48.2803365 L93.7801365,40.1563888 L96.8352176,40.1563888 C97.7588963,40.1563888 98.4642053,40.3536694 98.9511656,40.7482365 C99.438126,41.1428037 99.6816025,41.7160341 99.6816025,42.467945 C99.6816025,42.8848462 99.5685598,43.247768 99.3424711,43.5567215 C99.1163824,43.865675 98.7869161,44.1113452 98.3540625,44.2937395 C98.8178342,44.4389104 99.1511652,44.6743443 99.3540653,45.0000483 C99.5569655,45.3257523 99.658414,45.7286886 99.658414,46.2088694 L99.658414,46.9738047 C99.658414,47.2269232 99.6873993,47.453982 99.7453708,47.6549879 C99.8033422,47.8559938 99.9038246,48.0197739 100.046821,48.1463332 L100.046821,48.2803365 L98.870006,48.2803365 C98.7192802,48.1537772 98.6226625,47.9676634 98.5801501,47.7219895 C98.5376377,47.4763157 98.5163818,47.2232009 98.5163818,46.9626377 L98.5163818,46.2200363 C98.5163818,45.7808012 98.3830494,45.427185 98.1163807,45.1591772 C97.8497119,44.8911693 97.4922265,44.7571674 97.0439138,44.7571674 L94.9221687,44.7571674 Z M94.9221687,43.8917297 L96.7192753,43.8917297 C97.3646909,43.8917297 97.8294219,43.7735474 98.1134821,43.5371794 C98.3975423,43.3008113 98.5395703,42.9406812 98.5395703,42.4567781 C98.5395703,41.9989313 98.401407,41.6443846 98.1250763,41.3931272 C97.8487457,41.1418699 97.4187971,41.016243 96.8352176,41.016243 L94.9221687,41.016243 L94.9221687,43.8917297 Z M104.035238,48.3975893 C103.161801,48.3975893 102.46712,48.1174881 101.951174,47.5572772 C101.435228,46.9970663 101.177259,46.270292 101.177259,45.3769325 L101.177259,45.1312598 C101.177259,44.2714013 101.442957,43.5557938 101.974363,42.9844159 C102.505768,42.4130381 103.134749,42.1273534 103.861324,42.1273534 C104.707708,42.1273534 105.347317,42.3730236 105.78017,42.8643714 C106.213024,43.3557191 106.429448,44.0108396 106.429448,44.8297525 L106.429448,45.5165192 L102.359871,45.5165192 L102.34248,45.5444366 C102.354074,46.1251203 102.50673,46.6025021 102.800452,46.9765964 C103.094174,47.3506907 103.505765,47.5377351 104.035238,47.5377351 C104.421714,47.5377351 104.760842,47.4846926 105.052632,47.3786062 C105.344422,47.2725197 105.596594,47.1264204 105.809156,46.9403039 L106.255534,47.6549879 C106.031378,47.8671608 105.735728,48.0439689 105.368575,48.1854175 C105.001422,48.3268661 104.556981,48.3975893 104.035238,48.3975893 Z M103.861324,42.9927911 C103.478713,42.9927911 103.152145,43.1481961 102.881612,43.4590108 C102.611078,43.7698255 102.444896,44.1597339 102.383059,44.6287476 L102.394654,44.656665 L105.287415,44.656665 L105.287415,44.5114948 C105.287415,44.0797043 105.16761,43.7186436 104.927994,43.4283017 C104.688379,43.1379599 104.332826,42.9927911 103.861324,42.9927911 Z M111.565694,48.2803365 C111.527046,48.0979422 111.497095,47.9369538 111.475839,47.7973664 C111.454583,47.657779 111.442022,47.517263 111.438157,47.3758145 C111.225595,47.6661563 110.948303,47.9090348 110.606271,48.1044572 C110.264239,48.2998796 109.896126,48.3975893 109.50192,48.3975893 C108.848775,48.3975893 108.351194,48.2366009 108.009162,47.9146192 C107.667131,47.5926376 107.496117,47.1487562 107.496117,46.5829618 C107.496117,46.0060005 107.738628,45.5546746 108.223656,45.2289706 C108.708684,44.9032666 109.36665,44.740417 110.197574,44.740417 L111.438157,44.740417 L111.438157,44.1429858 C111.438157,43.7893643 111.326081,43.5092631 111.101925,43.3026737 C110.877768,43.0960843 110.560862,42.9927911 110.151197,42.9927911 C109.784045,42.9927911 109.485496,43.0830563 109.255543,43.2635894 C109.025589,43.4441225 108.910614,43.660945 108.910614,43.9140636 L107.820756,43.9140636 L107.809162,43.8805627 C107.785973,43.4413276 108.001431,43.0393219 108.45554,42.6745334 C108.90965,42.3097449 109.496119,42.1273534 110.214966,42.1273534 C110.926082,42.1273534 111.498059,42.3013698 111.930912,42.6494078 C112.363766,42.9974458 112.58019,43.4990224 112.58019,44.1541527 L112.58019,47.0631402 C112.58019,47.2790354 112.591784,47.4874828 112.614972,47.6884887 C112.638161,47.8894946 112.680673,48.0867752 112.742509,48.2803365 L111.565694,48.2803365 Z M109.670037,47.4763169 C110.083566,47.4763169 110.456511,47.3739543 110.78888,47.1692261 C111.12125,46.9644979 111.337674,46.7299945 111.438157,46.465709 L111.438157,45.4830184 L110.156994,45.4830184 C109.697087,45.4830184 109.328974,45.5946867 109.052643,45.8180266 C108.776313,46.0413664 108.63815,46.3037869 108.63815,46.6052957 C108.63815,46.8733036 108.725105,47.0854733 108.89902,47.2418112 C109.072934,47.3981491 109.329937,47.4763169 109.670037,47.4763169 Z M113.977295,45.371349 C113.977295,44.3998205 114.192752,43.6162815 114.623674,43.0207085 C115.054595,42.4251355 115.658455,42.1273534 116.435273,42.1273534 C116.802426,42.1273534 117.128027,42.1924932 117.412087,42.3227748 C117.696148,42.4530564 117.938658,42.6428925 118.139626,42.8922887 L118.139626,39.5701245 L119.281658,39.5701245 L119.281658,48.2803365 L118.348322,48.2803365 L118.214988,47.5377351 C118.010156,47.8206322 117.75895,48.0346631 117.461363,48.179834 C117.163776,48.3250049 116.817885,48.3975893 116.423679,48.3975893 C115.658455,48.3975893 115.059426,48.130516 114.626572,47.5963615 C114.193719,47.0622069 113.977295,46.3596274 113.977295,45.4886019 L113.977295,45.371349 Z M115.119327,45.4886019 C115.119327,46.0990642 115.248795,46.5876129 115.507734,46.9542625 C115.766673,47.3209122 116.168603,47.5042342 116.713535,47.5042342 C117.053634,47.5042342 117.339622,47.4297887 117.571508,47.2808955 C117.803394,47.1320022 117.992765,46.9235548 118.139626,46.6555469 L118.139626,43.835895 C117.992765,43.5864988 117.802428,43.3882876 117.56861,43.2412555 C117.334791,43.0942234 117.053634,43.0207085 116.725129,43.0207085 C116.176332,43.0207085 115.771504,43.2384616 115.510633,43.6739744 C115.249761,44.1094872 115.119327,44.675273 115.119327,45.371349 L115.119327,45.4886019 Z M124.632398,46.6778808 C124.632398,46.4359293 124.536746,46.2367875 124.34544,46.0804496 C124.154135,45.9241117 123.791818,45.7882486 123.258481,45.6728564 C122.497122,45.5127961 121.924179,45.2959736 121.539635,45.0223822 C121.155091,44.7487908 120.962822,44.3756327 120.962822,43.9028966 C120.962822,43.4115489 121.179246,42.9927929 121.612099,42.6466161 C122.044953,42.3004392 122.6092,42.1273534 123.304858,42.1273534 C124.035298,42.1273534 124.61597,42.3078838 125.046892,42.6689499 C125.477813,43.0300161 125.683609,43.4692446 125.664285,43.9866487 L125.65269,44.0201495 L124.562832,44.0201495 C124.562832,43.7558639 124.447857,43.5185689 124.217904,43.3082572 C123.98795,43.0979454 123.683605,42.9927911 123.304858,42.9927911 C122.899057,42.9927911 122.59761,43.0784035 122.400507,43.2496307 C122.203404,43.420858 122.104854,43.6274443 122.104854,43.8693958 C122.104854,44.107625 122.19181,44.2955999 122.365725,44.4333262 C122.539639,44.5710525 122.89326,44.6938875 123.426597,44.8018352 C124.218874,44.9656177 124.808242,45.1880237 125.194718,45.4690597 C125.581195,45.7500957 125.77443,46.1269762 125.77443,46.5997122 C125.77443,47.135728 125.549311,47.5693731 125.099066,47.9006606 C124.648821,48.2319481 124.060419,48.3975893 123.333843,48.3975893 C122.533837,48.3975893 121.90389,48.2021699 121.443983,47.8113251 C120.984076,47.4204803 120.76572,46.9645015 120.788909,46.4433751 L120.800503,46.4098743 L121.890361,46.4098743 C121.909685,46.8007191 122.060408,47.0864037 122.342536,47.2669368 C122.624664,47.4474699 122.955096,47.5377351 123.333843,47.5377351 C123.739644,47.5377351 124.057516,47.4586367 124.287469,47.3004376 C124.517423,47.1422385 124.632398,46.9347217 124.632398,46.6778808 Z M129.101976,45.466268 L129.258498,46.4824594 L129.29328,46.4880429 L129.519368,45.466268 L131.067199,40.1508053 L132.075897,40.1508053 L133.635322,45.466268 L133.867206,46.5103767 L133.901989,46.5103767 L134.070106,45.466268 L135.32808,40.1508053 L136.470112,40.1508053 L134.435324,48.2803365 L133.415031,48.2803365 L131.751258,42.6410326 L131.600533,41.9095981 L131.565751,41.9095981 L131.420823,42.6410326 L129.728064,48.2803365 L128.707772,48.2803365 L126.67878,40.1508053 L127.815015,40.1508053 L129.101976,45.466268 Z M141.345488,48.2803365 C141.306841,48.0979422 141.276889,47.9369538 141.255633,47.7973664 C141.234377,47.657779 141.221817,47.517263 141.217952,47.3758145 C141.00539,47.6661563 140.728097,47.9090348 140.386065,48.1044572 C140.044034,48.2998796 139.67592,48.3975893 139.281715,48.3975893 C138.628569,48.3975893 138.130988,48.2366009 137.788957,47.9146192 C137.446925,47.5926376 137.275912,47.1487562 137.275912,46.5829618 C137.275912,46.0060005 137.518422,45.5546746 138.00345,45.2289706 C138.488478,44.9032666 139.146444,44.740417 139.977369,44.740417 L141.217952,44.740417 L141.217952,44.1429858 C141.217952,43.7893643 141.105875,43.5092631 140.881719,43.3026737 C140.657563,43.0960843 140.340657,42.9927911 139.930992,42.9927911 C139.563839,42.9927911 139.26529,43.0830563 139.035337,43.2635894 C138.805384,43.4441225 138.690408,43.660945 138.690408,43.9140636 L137.60055,43.9140636 L137.588956,43.8805627 C137.565768,43.4413276 137.781225,43.0393219 138.235335,42.6745334 C138.689445,42.3097449 139.275914,42.1273534 139.99476,42.1273534 C140.705877,42.1273534 141.277853,42.3013698 141.710707,42.6494078 C142.143561,42.9974458 142.359984,43.4990224 142.359984,44.1541527 L142.359984,47.0631402 C142.359984,47.2790354 142.371578,47.4874828 142.394767,47.6884887 C142.417955,47.8894946 142.460467,48.0867752 142.522303,48.2803365 L141.345488,48.2803365 Z M139.449831,47.4763169 C139.863361,47.4763169 140.236305,47.3739543 140.568675,47.1692261 C140.901044,46.9644979 141.117468,46.7299945 141.217952,46.465709 L141.217952,45.4830184 L139.936789,45.4830184 C139.476882,45.4830184 139.108769,45.5946867 138.832438,45.8180266 C138.556107,46.0413664 138.417944,46.3037869 138.417944,46.6052957 C138.417944,46.8733036 138.5049,47.0854733 138.678814,47.2418112 C138.852729,47.3981491 139.109732,47.4763169 139.449831,47.4763169 Z M145.849849,46.0413653 L146.052748,46.8007171 L146.087531,46.8007171 L147.629564,42.2390228 L148.899133,42.2390228 L146.261444,49.2071923 C146.102989,49.6129265 145.875938,49.9665427 145.580283,50.2680515 C145.284629,50.5695603 144.885598,50.7203125 144.383178,50.7203125 C144.290424,50.7203125 144.17255,50.7100762 144.029554,50.6896034 C143.886558,50.6691306 143.776414,50.6495887 143.699118,50.630977 L143.815061,49.7655393 C143.791872,49.7618169 143.860471,49.7655392 144.020858,49.7767062 C144.181246,49.7878732 144.282695,49.7934566 144.325207,49.7934566 C144.568687,49.7934566 144.76772,49.6892329 144.92231,49.4807823 C145.076901,49.2723318 145.206368,49.0415507 145.310717,48.7884322 L145.583182,48.1575001 L143.25274,42.2390228 L144.528106,42.2390228 L145.849849,46.0413653 Z M155.229586,48.2803365 L149.757106,48.2803365 L149.757106,47.5265681 L152.522332,44.5673295 C153.017022,44.0350361 153.352285,43.6125578 153.528132,43.2998819 C153.703978,42.9872061 153.7919,42.6670904 153.7919,42.3395252 C153.7919,41.9337911 153.669196,41.5922723 153.423784,41.3149587 C153.178371,41.037645 152.852769,40.8989902 152.446969,40.8989902 C151.86339,40.8989902 151.433441,41.0432284 151.15711,41.3317091 C150.88078,41.6201897 150.742616,42.0249872 150.742616,42.5461136 L149.646961,42.5461136 L149.635367,42.5126128 C149.616043,41.8128145 149.857587,41.2246949 150.360007,40.7482365 C150.862426,40.2717781 151.558073,40.0335525 152.446969,40.0335525 C153.204463,40.0335525 153.808323,40.2466527 154.258568,40.6728597 C154.708814,41.0990666 154.933933,41.6415883 154.933933,42.300441 C154.933933,42.7433984 154.797702,43.1872798 154.525236,43.6320984 C154.25277,44.076917 153.87113,44.5542988 153.380305,45.0642582 L151.160009,47.3925649 L151.171603,47.4204822 L155.229586,47.4204822 L155.229586,48.2803365 Z M163.183231,48.2803365 L162.041199,48.2803365 L157.97742,41.9933502 L157.942637,42.0045171 L157.942637,48.2803365 L156.800605,48.2803365 L156.800605,40.1508053 L157.942637,40.1508053 L162.006416,46.4266247 L162.041199,46.4154578 L162.041199,40.1508053 L163.183231,40.1508053 L163.183231,48.2803365 Z M167.658606,48.3975893 C166.78517,48.3975893 166.090489,48.1174881 165.574543,47.5572772 C165.058596,46.9970663 164.800627,46.270292 164.800627,45.3769325 L164.800627,45.1312598 C164.800627,44.2714013 165.066326,43.5557938 165.597731,42.9844159 C166.129136,42.4130381 166.758117,42.1273534 167.484693,42.1273534 C168.331076,42.1273534 168.970685,42.3730236 169.403539,42.8643714 C169.836392,43.3557191 170.052816,44.0108396 170.052816,44.8297525 L170.052816,45.5165192 L165.983239,45.5165192 L165.965848,45.5444366 C165.977442,46.1251203 166.130098,46.6025021 166.42382,46.9765964 C166.717542,47.3506907 167.129134,47.5377351 167.658606,47.5377351 C168.045083,47.5377351 168.384211,47.4846926 168.676001,47.3786062 C168.96779,47.2725197 169.219962,47.1264204 169.432524,46.9403039 L169.878903,47.6549879 C169.654746,47.8671608 169.359096,48.0439689 168.991943,48.1854175 C168.624791,48.3268661 168.18035,48.3975893 167.658606,48.3975893 Z M167.484693,42.9927911 C167.102081,42.9927911 166.775513,43.1481961 166.50498,43.4590108 C166.234446,43.7698255 166.068264,44.1597339 166.006428,44.6287476 L166.018022,44.656665 L168.910784,44.656665 L168.910784,44.5114948 C168.910784,44.0797043 168.790978,43.7186436 168.551363,43.4283017 C168.311747,43.1379599 167.956194,42.9927911 167.484693,42.9927911 Z M172.939781,46.0804496 L173.073114,46.8118841 L173.107897,46.8118841 L173.270216,46.0804496 L174.522394,42.2390228 L175.438339,42.2390228 L176.696313,46.0804496 L176.876024,46.8956361 L176.910806,46.8956361 L177.078923,46.0804496 L178.064433,42.2390228 L179.200668,42.2390228 L177.380373,48.2803365 L176.458631,48.2803365 L175.247034,44.6008303 L174.986163,43.5734719 L174.951381,43.5790554 L174.702105,44.6008303 L173.507898,48.2803365 L172.586157,48.2803365 L170.765862,42.2390228 L171.902097,42.2390228 L172.939781,46.0804496 Z M183.965899,46.6778808 C183.965899,46.4359293 183.870247,46.2367875 183.678942,46.0804496 C183.487636,45.9241117 183.125319,45.7882486 182.591982,45.6728564 C181.830623,45.5127961 181.257681,45.2959736 180.873137,45.0223822 C180.488592,44.7487908 180.296323,44.3756327 180.296323,43.9028966 C180.296323,43.4115489 180.512747,42.9927929 180.945601,42.6466161 C181.378454,42.3004392 181.942701,42.1273534 182.638359,42.1273534 C183.368799,42.1273534 183.949472,42.3078838 184.380393,42.6689499 C184.811314,43.0300161 185.01711,43.4692446 184.997786,43.9866487 L184.986192,44.0201495 L183.896333,44.0201495 C183.896333,43.7558639 183.781358,43.5185689 183.551405,43.3082572 C183.321451,43.0979454 183.017106,42.9927911 182.638359,42.9927911 C182.232559,42.9927911 181.931112,43.0784035 181.734009,43.2496307 C181.536906,43.420858 181.438356,43.6274443 181.438356,43.8693958 C181.438356,44.107625 181.525311,44.2955999 181.699226,44.4333262 C181.87314,44.5710525 182.226761,44.6938875 182.760098,44.8018352 C183.552375,44.9656177 184.141743,45.1880237 184.528219,45.4690597 C184.914696,45.7500957 185.107931,46.1269762 185.107931,46.5997122 C185.107931,47.135728 184.882812,47.5693731 184.432567,47.9006606 C183.982322,48.2319481 183.39392,48.3975893 182.667345,48.3975893 C181.867338,48.3975893 181.237391,48.2021699 180.777484,47.8113251 C180.317577,47.4204803 180.099221,46.9645015 180.12241,46.4433751 L180.134004,46.4098743 L181.223862,46.4098743 C181.243186,46.8007191 181.39391,47.0864037 181.676037,47.2669368 C181.958165,47.4474699 182.288598,47.5377351 182.667345,47.5377351 C183.073145,47.5377351 183.391017,47.4586367 183.62097,47.3004376 C183.850924,47.1422385 183.965899,46.9347217 183.965899,46.6778808 Z" id="#IndiaReadsWay2News" fill="#F3F4F4"></path>
                    <g id="Group-4-Copy" transform="translate(0.000000, 1.831027)">
                        <g id="Group">
                            <path d="M0,0 L0,48.8892857 L49.7695853,48.8892857 L49.7695853,0 L0,0 Z M44.3930444,43.6074749 L5.37688652,43.6074749 L5.37688652,5.2818108 L44.3930444,5.2818108 L44.3930444,43.6074749 Z" id="Shape-Copy-3" fill="#FFB327" fill-rule="nonzero"></path>
                            <path d="M14.9060462,13.0298021 L34.1909771,13.0298021 L34.1909771,24.582432 L14.9060462,24.582432 L14.9060462,13.0298021 Z M14.9060462,27.6631333 L34.1909771,27.6631333 L34.1909771,29.5885717 L14.9060462,29.5885717 L14.9060462,27.6631333 Z M14.9060462,31.1289223 L29.8617069,31.1289223 L29.8617069,33.0543606 L14.9060462,33.0543606 L14.9060462,31.1289223 Z M14.9060462,34.5947113 L26.3195767,34.5947113 L26.3195767,36.5201496 L14.9060462,36.5201496 L14.9060462,34.5947113 Z" id="Combined-Shape" fill="#F3F4F4"></path>
                        </g>
                    </g>
                    <path d="M75.3873393,10.1666451 C75.3873393,9.61636238 75.5281,9.18961893 75.8096256,8.88640193 C76.2938496,8.39227052 76.8287403,8.14520852 77.4143136,8.14520852 C77.9773648,8.14520852 78.3940165,8.2911997 78.6642811,8.58318644 C79.1485052,9.07731785 79.3906136,9.60513212 79.3906136,10.1666451 L79.3906136,21.8404413 C79.3906136,23.3340658 78.8726142,24.5356855 77.8365999,25.4453365 C76.8118467,26.332527 75.4999569,26.7761156 73.9008914,26.7761156 C72.0766054,26.7761156 70.702781,26.214611 69.7793769,25.0915851 C69.4865903,24.8445194 69.2275906,24.8445194 69.0023701,25.0915851 C68.056444,26.214611 66.6826196,26.7761156 64.8808557,26.7761156 C63.2930512,26.7761156 61.9867919,26.3269119 60.9620386,25.4284912 C59.9035023,24.5076099 59.3742421,23.2947601 59.3742421,21.7899054 L59.3742421,10.1666451 C59.3742421,9.61636238 59.5150028,9.18961893 59.7965284,8.88640193 C60.2807524,8.39227052 60.8156431,8.14520852 61.4012164,8.14520852 C61.9642676,8.14520852 62.3809193,8.2911997 62.6511839,8.58318644 C63.135408,9.07731785 63.3775164,9.60513212 63.3775164,10.1666451 L63.3775164,21.9415131 C63.3775164,22.5142563 63.5689509,22.9550374 63.9518258,23.2638695 C64.3347006,23.5727017 64.8048413,23.7271154 65.3622621,23.7271154 C65.9196828,23.7271154 66.3954539,23.5783167 66.7895898,23.2807148 C67.1837257,22.983113 67.3807907,22.5367169 67.3807907,21.9415131 L67.3807907,10.1834904 C67.3807907,9.63320768 67.5215514,9.20646423 67.803077,8.90324723 C68.287301,8.40911582 68.8221917,8.16205382 69.407765,8.16205382 C69.9708162,8.16205382 70.3874679,8.30242996 70.6577325,8.58318644 C71.1419566,9.08854811 71.384065,9.62197743 71.384065,10.1834904 L71.384065,21.9415131 C71.384065,22.5367169 71.5783147,22.983113 71.9668201,23.2807148 C72.3553254,23.5783167 72.8310966,23.7271154 73.3941478,23.7271154 C73.9571991,23.7271154 74.430155,23.5727017 74.8130299,23.2638695 C75.1959047,22.9550374 75.3873393,22.5142563 75.3873393,21.9415131 L75.3873393,10.1666451 Z M86.4681323,10.0150373 C86.4681323,9.34122178 86.7834362,8.86955797 87.4140536,8.60003174 C87.59423,8.52141993 87.791295,8.48211461 88.0052545,8.48211461 L91.9916373,8.48211461 C93.3654823,8.48211461 94.5422418,8.97062356 95.5219509,9.94765613 C96.5016601,10.9246887 96.9915073,12.0982332 96.9915073,13.4683248 L96.9915073,24.8052149 C96.9915073,25.6587146 96.5861165,26.2595245 95.7753227,26.6076625 C95.5275802,26.7199651 95.2573196,26.7761156 94.964533,26.7761156 C94.6717464,26.7761156 94.4211923,26.7283877 94.2128633,26.6329305 C94.0045344,26.5374733 93.8271759,26.4279799 93.6807826,26.304447 C93.5569113,26.1921444 93.4330419,26.0321157 93.3091706,25.8243559 C93.1852994,25.6165961 93.0895821,25.4621823 93.0220159,25.36111 C92.9544498,25.2600376 92.8474717,25.2095022 92.7010783,25.2095022 C92.554685,25.2095022 92.436446,25.2600376 92.3463578,25.36111 L92.0760946,25.6474802 C91.3216059,26.3999075 90.4376287,26.7761156 89.4241365,26.7761156 C88.2192068,26.7761156 87.1775777,26.2819916 86.2992177,25.2937288 C85.4208578,24.3166962 84.9816844,23.1487667 84.9816844,21.7899054 L84.9816844,19.4652533 C84.9816844,18.0951617 85.4715317,16.9216172 86.4512408,15.9445846 C87.4196889,14.9787823 88.5964484,14.4958884 89.9815544,14.4958884 L92.988233,14.4958884 L92.988233,13.5188607 C92.988233,12.9573478 92.8474723,12.5362194 92.5659467,12.2554629 C92.0704616,11.7613315 91.5468318,11.5142695 90.9950416,11.5142695 L88.0052545,11.5142695 C87.5885965,11.5142695 87.2676622,11.4075836 87.0424417,11.1942087 C86.6595668,10.8348404 86.4681323,10.4417872 86.4681323,10.0150373 Z M88.9849587,21.7562148 C88.9849587,22.328958 89.1257194,22.7500864 89.407245,23.0196126 C89.9027301,23.4912835 90.3587948,23.7271154 90.7754527,23.7271154 C91.1921106,23.7271154 91.5214907,23.6878101 91.7636027,23.6091983 C92.0057147,23.5305865 92.2168558,23.4182856 92.3970322,23.2722922 C92.791168,22.9578449 92.988233,22.5423316 92.988233,22.0257396 L92.988233,17.511198 L90.9950416,17.511198 C90.4207293,17.511198 89.9928168,17.6515741 89.7112912,17.9323306 C89.2270671,18.4152317 88.9849587,18.937431 88.9849587,19.4989439 L88.9849587,21.7562148 Z M111.475928,8.30523891 C111.71804,8.19855145 111.97704,8.14520852 112.252935,8.14520852 C112.52883,8.14520852 112.790645,8.19574393 113.038387,8.29681626 C113.28613,8.39788859 113.500086,8.53826473 113.680263,8.71794888 C114.074399,9.11100795 114.271463,9.57705673 114.271463,10.1161092 L114.271463,29.4376737 C114.271463,30.8189956 113.781616,31.9925401 112.801907,32.9583424 C111.799676,33.935375 110.611656,34.4238839 109.237811,34.4238839 L106.248023,34.4238839 C105.820104,34.4238839 105.456942,34.2778927 105.158525,33.985906 C104.860108,33.6939193 104.710901,33.3345564 104.710901,32.9078065 C104.710901,32.4810566 104.860108,32.1188862 105.158525,31.8212843 C105.456942,31.5236825 105.820104,31.3748838 106.248023,31.3748838 L108.241215,31.3748838 C108.815527,31.3748838 109.24344,31.2345076 109.524965,30.9537511 C110.009189,30.47085 110.251298,29.9542658 110.251298,29.4039831 L110.251298,25.748552 C110.251298,25.5351771 110.192178,25.3919934 110.073937,25.3189967 C109.955697,25.246 109.840273,25.2095022 109.727663,25.2095022 C109.615052,25.2095022 109.513705,25.2600376 109.423617,25.36111 L109.136462,25.6306348 C108.370712,26.3942925 107.486735,26.7761156 106.484504,26.7761156 C105.268313,26.7761156 104.260466,26.2819916 103.460934,25.2937288 C102.661401,24.3166962 102.261641,23.1487667 102.261641,21.7899054 L102.261641,10.1161092 C102.261641,9.26260946 102.667031,8.6617996 103.477825,8.31366156 C103.714307,8.20135897 103.970491,8.14520852 104.246386,8.14520852 C104.522281,8.14520852 104.784096,8.19574393 105.031839,8.29681626 C105.279581,8.39788859 105.493538,8.53826473 105.673714,8.71794888 C106.06785,9.11100795 106.264915,9.57705673 106.264915,10.1161092 L106.264915,21.7393695 C106.264915,22.2896522 106.405676,22.7107806 106.687201,23.0027673 C107.160164,23.4968987 107.604968,23.7439607 108.021626,23.7439607 C108.438284,23.7439607 108.767664,23.7018479 109.009776,23.6176209 C109.251888,23.533394 109.468659,23.4126705 109.660097,23.2554469 C110.054233,22.9185391 110.251298,22.4805656 110.251298,21.9415131 L110.251298,10.1161092 C110.251298,9.56582647 110.394874,9.15312063 110.68203,8.87797927 C110.969186,8.60283792 111.233816,8.41192638 111.475928,8.30523891 Z M125.791434,3.54644032 C127.593198,3.54644032 129.017696,4.16971036 130.064972,5.41626915 C130.999637,6.53929508 131.466962,7.94867148 131.466962,9.64444064 C131.466962,11.5311242 130.78005,13.3223237 129.406205,15.0180929 C128.989547,15.5234545 128.539113,16.0456537 128.054889,16.5847062 L125.369148,19.5831704 C124.693486,20.3243676 124.265574,20.8858721 124.085398,21.2677009 C123.78135,21.8965954 123.629328,22.6040912 123.629328,23.3902093 L129.912949,23.3902093 C130.307085,23.3902093 130.611128,23.4968952 130.825087,23.7102701 C131.207962,24.0920989 131.399397,24.4935747 131.399397,24.9147094 C131.399397,25.3358441 131.255821,25.695207 130.968665,25.9928089 C130.681508,26.2904108 130.329607,26.4392095 129.912949,26.4392095 L121.619245,26.4392095 C121.067455,26.4392095 120.645173,26.2932183 120.352386,26.0012316 C119.868162,25.5183304 119.626054,24.9905161 119.626054,24.4177729 L119.626054,24.3840823 C119.626054,22.6546224 119.814673,21.3631619 120.191918,20.5096622 C120.569162,19.6561625 121.00552,18.8953238 121.501005,18.2271234 C121.99649,17.558923 122.638359,16.7980843 123.426631,15.9445846 L126.365744,12.760822 C126.726096,12.3789932 127.027324,11.8876767 127.269436,11.2868579 C127.511548,10.686039 127.632603,10.1133043 127.632603,9.56863677 C127.632603,9.02396919 127.556592,8.56915051 127.404568,8.20416708 C127.252544,7.83918366 127.052664,7.53877872 126.804921,7.30294328 C126.309436,6.83127239 125.723872,6.59544048 125.04821,6.59544048 L121.737486,6.59544048 C121.332089,6.59544048 121.016785,6.48313957 120.791564,6.25853438 C120.408689,5.87670557 120.217255,5.47803734 120.217255,5.06251775 C120.217255,4.64699815 120.366461,4.29044277 120.664878,3.9928409 C120.963296,3.69523902 121.320828,3.54644032 121.737486,3.54644032 L125.791434,3.54644032 Z M139.600197,26.6160852 C139.358085,26.7227726 139.099085,26.7761156 138.82319,26.7761156 C138.547295,26.7761156 138.288295,26.7255802 138.046183,26.6245078 C137.804071,26.5234355 137.59293,26.3830594 137.412754,26.2033752 C137.018618,25.8103161 136.821553,25.3442674 136.821553,24.8052149 L136.821553,10.1666451 C136.821553,9.61636238 136.967944,9.18961893 137.260731,8.88640193 C137.733694,8.39227052 138.186943,8.14520852 138.620493,8.14520852 C139.054042,8.14520852 139.374976,8.1929364 139.583305,8.28839361 C139.791634,8.38385081 139.968993,8.4933442 140.115386,8.61687705 C140.329346,8.7965612 140.478552,8.97905018 140.56301,9.16434945 C140.647467,9.34964873 140.723478,9.48721735 140.791044,9.57705942 C140.85861,9.6669015 140.962773,9.71182186 141.103536,9.71182186 C141.244299,9.71182186 141.359723,9.66409397 141.449811,9.56863677 C141.539899,9.47317956 141.68629,9.32438086 141.888989,9.12223619 C142.56465,8.47088115 143.305051,8.14520852 144.110215,8.14520852 C144.915378,8.14520852 145.588214,8.27716208 146.128743,8.54107318 C146.669273,8.80498427 147.136598,9.1671547 147.530734,9.62759533 C148.397833,10.6046279 148.831376,11.7725573 148.831376,13.1314187 L148.831376,24.8052149 C148.831376,25.6587146 148.431615,26.2595245 147.632083,26.6076625 C147.38434,26.7199651 147.122525,26.7761156 146.84663,26.7761156 C146.570735,26.7761156 146.30892,26.7255802 146.061178,26.6245078 C145.813435,26.5234355 145.599479,26.3830594 145.419302,26.2033752 C145.025166,25.8103161 144.828102,25.3442674 144.828102,24.8052149 L144.828102,13.1819546 C144.828102,12.6316719 144.692971,12.2105435 144.422707,11.9185568 C143.938483,11.4244254 143.420483,11.1773634 142.868693,11.1773634 C141.967811,11.1773634 141.342834,11.5254962 140.993742,12.2217723 C140.881131,12.4463775 140.824827,12.6990545 140.824827,12.979811 L140.824827,24.8052149 C140.824827,25.3554976 140.681251,25.7682035 140.394095,26.0433448 C140.106939,26.3184862 139.842309,26.5093977 139.600197,26.6160852 Z M164.168815,23.8450325 C164.461602,24.1482495 164.607993,24.51042 164.607993,24.9315547 C164.607993,25.3526894 164.461602,25.7092448 164.168815,26.0012316 C163.876028,26.2932183 163.515681,26.4392095 163.087762,26.4392095 L159.101379,26.4392095 C157.727534,26.4392095 156.550775,25.9507005 155.571065,24.973668 C154.591356,23.9966354 154.101509,22.8230909 154.101509,21.4529993 L154.101509,13.1819546 C154.101509,11.6546394 154.619508,10.4361745 155.655523,9.52652351 C156.736581,8.60564224 158.223014,8.14520852 160.114866,8.14520852 C161.984196,8.14520852 163.459368,8.60564224 164.540427,9.52652351 C165.587702,10.4474048 166.111332,11.6770997 166.111332,13.2156452 L166.111332,17.9323306 C166.111332,18.4938435 165.970571,18.914972 165.689046,19.1957284 C165.204822,19.6786296 164.675561,19.9200765 164.101249,19.9200765 L158.104783,19.9200765 L158.104783,21.4193087 C158.104783,21.9920519 158.245544,22.4131803 158.52707,22.6827065 C159.022555,23.1543774 159.546185,23.3902093 160.097975,23.3902093 L163.087762,23.3902093 C163.515681,23.3902093 163.876028,23.5418155 164.168815,23.8450325 Z M162.108058,13.1819546 C162.108058,12.6204417 161.967297,12.1993133 161.685771,11.9185568 C161.190286,11.4244254 160.666656,11.1773634 160.114866,11.1773634 C159.551815,11.1773634 159.123902,11.3233546 158.831116,11.6153413 C158.346892,12.0982424 158.104783,12.6204417 158.104783,13.1819546 L158.104783,16.9721482 L162.108058,16.9721482 L162.108058,13.1819546 Z M187.7155,10.1666451 C187.7155,9.61636238 187.856261,9.18961893 188.137786,8.88640193 C188.62201,8.39227052 189.156901,8.14520852 189.742474,8.14520852 C190.305526,8.14520852 190.722177,8.2911997 190.992442,8.58318644 C191.476666,9.07731785 191.718774,9.60513212 191.718774,10.1666451 L191.718774,21.8404413 C191.718774,23.3340658 191.200775,24.5356855 190.164761,25.4453365 C189.140007,26.332527 187.828118,26.7761156 186.229052,26.7761156 C184.404766,26.7761156 183.030942,26.214611 182.107538,25.0915851 C181.814751,24.8445194 181.555751,24.8445194 181.330531,25.0915851 C180.384605,26.214611 179.01078,26.7761156 177.209016,26.7761156 C175.621212,26.7761156 174.314953,26.3269119 173.290199,25.4284912 C172.231663,24.5076099 171.702403,23.2947601 171.702403,21.7899054 L171.702403,10.1666451 C171.702403,9.61636238 171.843164,9.18961893 172.124689,8.88640193 C172.608913,8.39227052 173.143804,8.14520852 173.729377,8.14520852 C174.292428,8.14520852 174.70908,8.2911997 174.979345,8.58318644 C175.463569,9.07731785 175.705677,9.60513212 175.705677,10.1666451 L175.705677,21.9415131 C175.705677,22.5142563 175.897112,22.9550374 176.279987,23.2638695 C176.662861,23.5727017 177.133002,23.7271154 177.690423,23.7271154 C178.247844,23.7271154 178.723615,23.5783167 179.117751,23.2807148 C179.511886,22.983113 179.708951,22.5367169 179.708951,21.9415131 L179.708951,10.1834904 C179.708951,9.63320768 179.849712,9.20646423 180.131238,8.90324723 C180.615462,8.40911582 181.150352,8.16205382 181.735926,8.16205382 C182.298977,8.16205382 182.715629,8.30242996 182.985893,8.58318644 C183.470117,9.08854811 183.712226,9.62197743 183.712226,10.1834904 L183.712226,21.9415131 C183.712226,22.5367169 183.906475,22.983113 184.294981,23.2807148 C184.683486,23.5783167 185.159257,23.7271154 185.722309,23.7271154 C186.28536,23.7271154 186.758316,23.5727017 187.141191,23.2638695 C187.524065,22.9550374 187.7155,22.5142563 187.7155,21.9415131 L187.7155,10.1666451 Z M198.441573,26.0012316 C198.137525,25.7092448 197.985503,25.4060324 197.985503,25.0915851 C197.985503,24.7771378 198.027732,24.5272683 198.112189,24.341969 C198.196647,24.1566698 198.312071,23.9910259 198.458464,23.8450325 C198.762512,23.5418155 199.117229,23.3902093 199.522626,23.3902093 L203.255637,23.3902093 C203.942559,23.3902093 204.494341,23.1964902 204.910999,22.8090463 C205.327657,22.4216024 205.535983,21.941516 205.535983,21.3687727 C205.535983,20.7960295 205.378331,20.3327883 205.063022,19.9790351 C204.747713,19.6252819 204.359214,19.3754124 203.897512,19.229419 L200.85705,18.3871538 C199.809775,18.0727065 198.976472,17.4887418 198.357115,16.6352421 C197.726498,15.7705121 197.411194,14.8552597 197.411194,13.8894574 C197.411194,12.9236551 197.55477,12.1263187 197.841926,11.4974242 C198.129082,10.8685296 198.514766,10.3294853 198.99899,9.88027491 C200.001222,8.94816338 201.239916,8.48211461 202.71511,8.48211461 L206.836625,8.48211461 C207.264543,8.48211461 207.61926,8.63091332 207.900786,8.92851519 C208.182312,9.22611706 208.323072,9.58828749 208.323072,10.0150373 C208.323072,10.4417872 208.182312,10.7983426 207.900786,11.0847142 C207.61926,11.3710858 207.264543,11.5142695 206.836625,11.5142695 L203.036048,11.5142695 C202.461735,11.5142695 202.014116,11.6827208 201.693177,12.0196286 C201.372238,12.3565364 201.211771,12.7552046 201.211771,13.2156452 C201.211771,13.9343818 201.611531,14.4734262 202.411064,14.8327945 L205.721789,15.7929769 C207.501031,16.3881806 208.68342,17.5111897 209.268994,19.1620378 C209.460431,19.7235508 209.556148,20.369281 209.556148,21.0992479 C209.556148,21.8292147 209.406942,22.5254804 209.108525,23.1880657 C208.810108,23.850651 208.413163,24.4233856 207.917678,24.9062867 C206.870402,25.9282403 205.637338,26.4392095 204.218449,26.4392095 L199.522626,26.4392095 C199.105968,26.4392095 198.74562,26.2932183 198.441573,26.0012316 Z" id="way2news" fill="#F3F4F4"></path>
                    <ellipse id="Oval-2" stroke="#979797" cx="218.778802" cy="6.92366071" rx="6.22119816" ry="6.11116071"></ellipse>
                    <text id="R" font-family="Roboto-Regular, Roboto" font-size="9" font-weight="normal" fill="#7B7F76">
                        <tspan x="215.668203" y="9.91439732">R</tspan>
                    </text>
                </g>
            </g>
        </g>
    </g>
</svg>